<svg width="119" height="39" viewBox="0 0 119 39" fill="none" xmlns="http://www.w3.org/2000/svg">
<path d="M115.293 23.8345L118.595 26.0326C117.523 27.6089 114.96 30.3132 110.53 30.3132C105.028 30.3132 100.931 26.0615 100.931 20.653C100.931 14.8974 105.071 10.9928 110.067 10.9928C115.091 10.9928 117.552 14.9841 118.348 17.1389L118.783 18.2379L105.839 23.5886C106.823 25.5265 108.358 26.5098 110.53 26.5098C112.702 26.5098 114.208 25.4397 115.293 23.8345ZM105.144 20.3493L113.788 16.7629C113.31 15.5626 111.891 14.7094 110.197 14.7094C108.04 14.7094 105.042 16.6183 105.144 20.3493Z" fill="white" fill-opacity="0.6"/>
<path d="M94.6902 1.14465H98.8601V29.4311H94.6902V1.14465Z" fill="white" fill-opacity="0.6"/>
<path d="M88.1168 11.7448H92.1419V28.9249C92.1419 36.0544 87.9286 38.99 82.9479 38.99C78.2568 38.99 75.4335 35.8375 74.3765 33.2778L78.0686 31.7449C78.7346 33.3212 80.3417 35.1867 82.9479 35.1867C86.1477 35.1867 88.1168 33.2055 88.1168 29.5034V28.1151H87.9721C87.0165 29.272 85.1921 30.3132 82.8755 30.3132C78.0396 30.3132 73.6091 26.105 73.6091 20.682C73.6091 15.23 78.0396 10.9784 82.8755 10.9784C85.1777 10.9784 87.0165 12.0051 87.9721 13.1331H88.1168V11.7448ZM88.4064 20.682C88.4064 17.2691 86.1332 14.7817 83.2375 14.7817C80.3128 14.7817 77.8514 17.2691 77.8514 20.682C77.8514 24.0515 80.3128 26.4954 83.2375 26.4954C86.1332 26.5099 88.4064 24.0515 88.4064 20.682Z" fill="white" fill-opacity="0.6"/>
<path d="M50.7182 20.6097C50.7182 26.1773 46.3746 30.2699 41.0464 30.2699C35.7183 30.2699 31.3746 26.1629 31.3746 20.6097C31.3746 15.0132 35.7183 10.9351 41.0464 10.9351C46.3746 10.9351 50.7182 15.0132 50.7182 20.6097ZM46.4904 20.6097C46.4904 17.139 43.9711 14.7529 41.0464 14.7529C38.1217 14.7529 35.6024 17.139 35.6024 20.6097C35.6024 24.0515 38.1217 26.4666 41.0464 26.4666C43.9711 26.4666 46.4904 24.0515 46.4904 20.6097Z" fill="white" fill-opacity="0.6"/>
<path d="M71.8427 20.653C71.8427 26.2206 67.4991 30.3132 62.1709 30.3132C56.8427 30.3132 52.4991 26.2206 52.4991 20.653C52.4991 15.0564 56.8427 10.9928 62.1709 10.9928C67.4991 10.9928 71.8427 15.042 71.8427 20.653ZM67.6005 20.653C67.6005 17.1823 65.0811 14.7961 62.1564 14.7961C59.2317 14.7961 56.7124 17.1823 56.7124 20.653C56.7124 24.0948 59.2317 26.5098 62.1564 26.5098C65.0956 26.5098 67.6005 24.0803 67.6005 20.653Z" fill="white" fill-opacity="0.6"/>
<path d="M15.477 26.076C9.41039 26.076 4.66136 21.1881 4.66136 15.1288C4.66136 9.06949 9.41039 4.18155 15.477 4.18155C18.7492 4.18155 21.1382 5.46861 22.9046 7.1172L25.8148 4.21047C23.3534 1.85327 20.0667 0.0600586 15.477 0.0600586C7.16618 0.0600586 0.172951 6.82798 0.172951 15.1288C0.172951 23.4296 7.16618 30.1975 15.477 30.1975C19.9654 30.1975 23.3534 28.7225 26.003 25.9748C28.725 23.2561 29.5648 19.4383 29.5648 16.3436C29.5648 15.3746 29.449 14.3768 29.3187 13.6393H15.477V17.6595H25.337C25.0474 20.1758 24.2511 21.8967 23.0783 23.0681C21.6594 24.4998 19.4152 26.076 15.477 26.076Z" fill="white" fill-opacity="0.6"/>
</svg>
